<svg width="540" height="540" viewBox="0 0 540 540" fill="none" xmlns="http://www.w3.org/2000/svg">
<path d="M540 540H0V0H540V540ZM154.987 440.975V500.918H214.035V440.975H154.987ZM138.953 368.822V406.439H60.0166V490.24H143.817V427.87H215.298V368.822H138.953ZM277.749 286.803L228.989 368.814H285.725V416.916H348.352V396.049H379.065L425.737 317.317L312.859 317.02V334.904H299.668V286.803H277.749ZM63.1006 317.02V389.488H125.728V317.02H63.1006ZM60.0166 142.496V210.949H52V311.749H126.003V346.927H154.987V353.448H223.877V291.119H154.987V292.352H139.081V210.949H138.748V142.496H60.0166ZM302.809 210.949L261.058 281.628H319.643V304.269H377.498V237.467H322.193V210.949H302.809ZM377.611 239.934V293.614H423.836L454.553 239.934H377.611ZM193.222 39V155.447H151.903V278.315H209.46V165.446H276.426V39H193.222ZM286.697 39V165.446H330.835V229.862H449.826L487.999 162.314L348.728 162.71V39H286.697Z" fill="#030712"/>
</svg>
